# xmcd
#
# Track frame offsets:
#	150
#	13413
#	26240
#	45740
#	62838
#	79385
#	92852
#	111830
#	125792
#	141362
#
# Disc length: 2118 seconds
# Revision: 0
# Processed by: cddbd v1.5.2PL0 Copyright (c) Steve Scherf et al.
# Submitted via: dBpowerAMP V12.0
#
DISCID=9808440a
DTITLE=Billy Keeble - Just For You
DYEAR=2012
DGENRE=Country
TTITLE0=Between A Rock And A Hard Place
TTITLE1=Aangels Don't Lie
TTITLE2=Sharla Manes Ghost
TTITLE3=I've Done All I Can
TTITLE4=Forever Mi Amore
TTITLE5=I Wish I'd Never Borrowd Anybodys Angel
TTITLE6=Ten Thousand To One
TTITLE7=This Song's For You
TTITLE8=If You Were Here Tonight
TTITLE9=Empty Glass
EXTD=
EXTT0=
EXTT1=
EXTT2=
EXTT3=
EXTT4=
EXTT5=
EXTT6=
EXTT7=
EXTT8=
EXTT9=
PLAYORDER=
